<svg width="64" height="64" viewBox="0 0 64 64" fill="none" xmlns="http://www.w3.org/2000/svg">
  <rect width="64" height="64" rx="18" fill="#EAF4FF"/>
  <path d="M18 18.5C18 15.4624 20.4624 13 23.5 13H45.5C48.5376 13 51 15.4624 51 18.5V24.5C51 27.5376 48.5376 30 45.5 30H23.5C20.4624 30 18 27.5376 18 24.5V18.5Z" fill="#1D4ED8"/>
  <path d="M22 18.5C22 17.6716 22.6716 17 23.5 17H45.5C46.3284 17 47 17.6716 47 18.5V23.5C47 24.3284 46.3284 25 45.5 25H23.5C22.6716 25 22 24.3284 22 23.5V18.5Z" fill="#60A5FA"/>
  <path d="M14 21.5H18" stroke="#0F172A" stroke-width="4" stroke-linecap="round"/>
  <path d="M14 21.5C10.6863 21.5 8 24.1863 8 27.5V30C8 33.3137 10.6863 36 14 36H30C32.2091 36 34 37.7909 34 40V43" stroke="#0F172A" stroke-width="4" stroke-linecap="round" stroke-linejoin="round"/>
  <path d="M29 43C29 40.2386 31.2386 38 34 38C36.7614 38 39 40.2386 39 43V51C39 53.7614 36.7614 56 34 56C31.2386 56 29 53.7614 29 51V43Z" fill="#1D4ED8"/>
  <path d="M33 43C33 42.4477 33.4477 42 34 42C34.5523 42 35 42.4477 35 43V51C35 51.5523 34.5523 52 34 52C33.4477 52 33 51.5523 33 51V43Z" fill="#93C5FD"/>
  <path d="M25 17H44" stroke="#BFDBFE" stroke-width="2" stroke-linecap="round"/>
</svg>
